PathFileType	3	(X/Y/Z)	F:\ViconData\AntennenMessung\Messung1\Session1\ID02.trc
DataRate	CameraRate	NumFrames	NumMarkers	Units	OrigDataRate	OrigDataStartFrame	OrigNumFrames
120.0	120.0	4	70	mm	120.0	116	924	
Frame#	Time	Ashort			Along			Atop			A4			Bshort			Blong			Btop			B4			Cshort			Clong			Ctop			C4			Dshort			Dlong			Dtop			D4			Eshort			Elong			Etop			E4			Fshort			Flong			Ftop			F4			Gshort			Glong			Gtop			G4			Hshort			Hlong			Htop			H4			I1			I2			I3			I4			I5			WandAshort			WandAlong			WandAtop			WandA4			WandA15			WandBshort			WandB4			WandB5			WandBtop			WandBlong			WandCshort			WandClong			WandCtop			WandC4			WandC5			Acenter			Aantenna			Bcenter			Bantenna			Ccenter			Cantenna			Dcenter			Dantenna			Ecenter			Eantenna			Fcenter			Fantenna			Gcenter			Gantenna			Hcenter			Hantenna			Icenter			Iantenna			
		X1	Y1	Z1	X2	Y2	Z2	X3	Y3	Z3	X4	Y4	Z4	X5	Y5	Z5	X6	Y6	Z6	X7	Y7	Z7	X8	Y8	Z8	X9	Y9	Z9	X10	Y10	Z10	X11	Y11	Z11	X12	Y12	Z12	X13	Y13	Z13	X14	Y14	Z14	X15	Y15	Z15	X16	Y16	Z16	X17	Y17	Z17	X18	Y18	Z18	X19	Y19	Z19	X20	Y20	Z20	X21	Y21	Z21	X22	Y22	Z22	X23	Y23	Z23	X24	Y24	Z24	X25	Y25	Z25	X26	Y26	Z26	X27	Y27	Z27	X28	Y28	Z28	X29	Y29	Z29	X30	Y30	Z30	X31	Y31	Z31	X32	Y32	Z32	X33	Y33	Z33	X34	Y34	Z34	X35	Y35	Z35	X36	Y36	Z36	X37	Y37	Z37	X38	Y38	Z38	X39	Y39	Z39	X40	Y40	Z40	X41	Y41	Z41	X42	Y42	Z42	X43	Y43	Z43	X44	Y44	Z44	X45	Y45	Z45	X46	Y46	Z46	X47	Y47	Z47	X48	Y48	Z48	X49	Y49	Z49	X50	Y50	Z50	X51	Y51	Z51	X52	Y52	Z52	X53	Y53	Z53	X54	Y54	Z54	X55	Y55	Z55	X56	Y56	Z56	X57	Y57	Z57	X58	Y58	Z58	X59	Y59	Z59	X60	Y60	Z60	X61	Y61	Z61	X62	Y62	Z62	X63	Y63	Z63	X64	Y64	Z64	X65	Y65	Z65	X66	Y66	Z66	X67	Y67	Z67	X68	Y68	Z68	X69	Y69	Z69	X70	Y70	Z70	
116	0.95833333	-1038.2207	214.4185	-1644.2518	-1109.2916	203.37233	-1599.5283	-1063.6477	173.12791	-1625.6002	-1053.9883	261.89673	-1634.9819	-1353.0176	234.97556	1003.9572	-1281.2339	227.04138	1052.344	-1323.025	194.14796	1020.8212	-1284.5238	287.86777	1052.791	813.91974	187.68553	1209.467	892.37634	178.43729	1179.2235	844.35815	145.47368	1198.1427	860.5719	292.26245	1167.3772	1115.8053	209.76057	-1401.6964	1056.297	194.08075	-1460.1588	1094.9821	162.16454	-1423.8876	1069.8752	238.68425	-1425.9133	-1204.5428	1685.9972	-1563.1915	-1129.0956	1688.1932	-1606.063	-1173.0903	1724.3662	-1581.9592	-1133.5062	1581.0581	-1603.4716	-1239.6553	1699.1807	1119.2386	-1309.3884	1698.8696	1071.7825	-1270.3282	1736.1469	1096.6451	-1244.6616	1593.8361	1106.4601	988.91779	1664.2911	1162.2701	957.51801	1700.295	1183.6382	922.56342	1662.0028	1214.7622	939.81384	1659.34	1159.8894	999.2652	1668.5657	-1579.498	1058.9399	1670.1652	-1518.618	1025.0817	1708.0128	-1551.1273	1059.3124	1672.1914	-1585.5957	-542.0271	1144.1014	-298.2225	-545.74188	1145.1537	-213.91557	-544.13062	1181.5411	-260.93607	-575.83392	1142.4705	-262.80646	-496.02313	1146.1423	-258.55786																																														-1068.9087	209.6488	-1624.9403	-1074.4686	248.24416	-1624.243	-1321.7389	231.51834	1025.041	-1320.4059	270.24942	1029.4144	848.13898	183.65187	1196.2762	851.97791	222.41617	1194.3811	1088.6914	202.61635	-1428.3337	1082.7335	240.92787	-1432.5446	-1171.8824	1686.9479	-1581.75	-1170.6241	1647.9686	-1581.5322	-1271.0148	1699.0408	1097.8972	-1271.7358	1660.0696	1099.2122	953.11609	1705.3423	1186.6337	972.96716	1733.5013	1168.3578	1026.6063	1669.2985	-1551.6045	1028.141	1630.3317	-1552.0851	-543.69122	1144.5728	-260.45532	-543.22766	1105.5787	-259.94824
117	0.96666667	-1038.2483	214.41092	-1644.2197	-1109.269	203.42757	-1599.5607	-1063.5537	173.15016	-1625.6537	-1054.1179	262.04465	-1634.9644	-1352.9528	234.83936	1003.9109	-1281.2339	226.95544	1052.3873	-1322.8986	194.24725	1020.7498	-1284.5903	287.87509	1052.7661	814.01837	187.69606	1209.4427	892.18011	178.42776	1179.3278	844.7113	145.15839	1198.2122	860.52808	292.3952	1167.2778	1115.7946	209.72711	-1401.6943	1056.3561	194.06886	-1460.1388	1094.9645	162.12927	-1423.8981	1069.8511	238.62807	-1425.9215	-1204.4823	1685.936	-1563.3269	-1129.0862	1688.2339	-1606.0928	-1173.0889	1724.3595	-1581.98	-1133.4889	1581.0746	-1603.4894	-1239.6533	1699.1857	1119.2307	-1309.3981	1698.8597	1071.7783	-1270.3323	1736.1632	1096.6508	-1244.6349	1593.8994	1106.3995	988.86401	1664.2485	1162.2513	957.49677	1700.33	1183.672	922.13544	1662.2469	1214.808	939.7926	1659.3835	1159.8756	999.26056	1668.556	-1579.4821	1058.9301	1670.171	-1518.6094	1025.0897	1708.0138	-1551.1235	1059.2979	1672.1926	-1585.604	-542.02057	1144.1161	-298.21924	-545.7395	1145.1726	-213.93013	-544.13763	1181.5485	-260.9191	-575.77557	1142.4152	-262.78241	-496.0759	1146.1622	-258.85519																																														-1068.7986	209.68629	-1625.009	-1074.3396	248.28465	-1624.3281	-1321.7073	231.40459	1025.0304	-1320.4658	270.12869	1029.4916	848.48169	183.60944	1196.1643	852.28241	222.36888	1194.1	1088.6848	202.58543	-1428.3506	1082.7379	240.89803	-1432.567	-1171.8627	1686.9301	-1581.8292	-1170.5857	1647.9513	-1581.6724	-1271.0074	1699.0391	1097.8981	-1271.7162	1660.0675	1099.2078	952.90173	1705.6154	1186.8098	972.86859	1733.7607	1168.6394	1026.6073	1669.296	-1551.5837	1028.1346	1630.3287	-1552.0471	-543.68756	1144.5896	-260.43594	-543.21271	1105.5958	-259.92624
118	0.975	-1038.2291	214.40544	-1644.228	-1109.1975	203.17932	-1599.6365	-1063.6418	172.73749	-1625.4286	-1054.1029	262.04306	-1634.9514	-1353.0737	234.80318	1003.9036	-1281.2725	227.07335	1052.3864	-1322.9877	194.17383	1020.7878	-1284.5283	287.88812	1052.7477	813.94482	187.67677	1209.5177	892.35986	178.47838	1179.2194	844.63824	145.2794	1198.2059	860.66022	292.29074	1167.338	1115.791	209.72902	-1401.6985	1056.334	194.12357	-1460.1769	1095.0939	162.08459	-1423.9614	1069.8668	238.64049	-1425.9194	-1204.4821	1685.9421	-1563.3289	-1129.0686	1688.2188	-1606.0861	-1173.0887	1724.3639	-1581.9825	-1133.5288	1581.0974	-1603.5092	-1239.6849	1699.2263	1119.2482	-1309.3966	1698.8147	1071.7661	-1270.3105	1736.1255	1096.6361	-1244.6967	1593.7012	1106.4985	988.84253	1664.2358	1162.2869	957.57587	1700.2997	1183.6727	922.5224	1662.1412	1214.8091	939.81989	1659.3456	1159.8887	999.28113	1668.5609	-1579.4932	1058.938	1670.1697	-1518.615	1025.0906	1708.0204	-1551.1299	1059.3127	1672.2188	-1585.6075	-542.0246	1144.1069	-298.22089	-545.73138	1145.161	-213.92325	-544.14111	1181.5553	-260.91055	-575.73596	1142.4801	-262.75317	-496.06647	1146.1604	-258.88058																																														-1069.0894	209.52379	-1624.8374	-1074.8019	248.09818	-1624.2175	-1321.8234	231.43889	1025.0049	-1320.6132	270.17288	1029.3881	848.36926	183.63863	1196.2166	852.13977	222.40384	1194.2063	1088.7319	202.62691	-1428.312	1082.7197	240.94073	-1432.4236	-1171.8669	1686.9268	-1581.8206	-1170.5947	1647.9478	-1581.6521	-1270.9763	1699.0415	1097.9349	-1271.6759	1660.0717	1099.2999	953.16699	1705.3849	1186.6884	973.0863	1733.4938	1168.4094	1026.6146	1669.298	-1551.6	1028.1483	1630.3311	-1552.0731	-543.6864	1144.5796	-260.42819	-543.20685	1105.5858	-259.91949
119	0.98333333	-1038.2029	214.30334	-1644.2954	-1109.2766	203.43813	-1599.5817	-1063.5718	173.15331	-1625.6127	-1053.9735	261.94025	-1634.9791	-1352.9485	235.02637	1003.9134	-1281.2584	227.06961	1052.3302	-1322.9888	194.1479	1020.7809	-1284.5228	287.87927	1052.7725	813.91217	187.67345	1209.4739	892.65442	179.15746	1178.7766	844.36304	145.49886	1198.1731	860.59326	292.30927	1167.2455	1115.8049	209.76277	-1401.6997	1056.3356	194.09467	-1460.161	1095.0647	162.18854	-1423.8912	1069.8518	238.5733	-1425.9331	-1204.486	1685.9331	-1563.3188	-1129.1251	1688.3281	-1606.5811	-1173.0769	1724.3682	-1581.9822	-1133.5122	1581.088	-1603.5095	-1239.6642	1699.1979	1119.2434	-1309.4329	1698.8629	1071.7858	-1270.3202	1736.1359	1096.6382	-1244.6395	1593.7802	1106.578	988.88727	1664.2794	1162.2677	957.49243	1700.3606	1183.667	922.04791	1662.22	1214.7217	939.73956	1659.3318	1159.903	999.26532	1668.5575	-1579.5001	1058.7908	1669.9812	-1518.6429	1025.0914	1708.0197	-1551.1257	1059.3075	1672.2169	-1585.6135	-542.0271	1144.1064	-298.21408	-545.73572	1145.1515	-213.92596	-544.15314	1181.5641	-260.9173	-575.7085	1142.4714	-262.75446	-496.03143	1146.1306	-258.54425																																														-1068.7938	209.62683	-1625.0502	-1074.3204	248.22865	-1624.455	-1321.6985	231.55798	1025.0184	-1320.3628	270.28741	1029.4055	847.78552	184.01003	1196.2684	851.23364	222.80986	1194.3496	1088.7443	202.63324	-1428.3015	1082.7576	240.94391	-1432.479	-1171.9098	1686.9684	-1582.0197	-1170.6934	1647.9873	-1582.0591	-1271.0134	1699.0472	1097.9192	-1271.7418	1660.0774	1099.2653	952.90479	1705.6328	1186.7939	972.9151	1733.7856	1168.683	1026.5302	1669.2096	-1551.6251	1027.975	1630.2396	-1552.1266	-543.68921	1144.5747	-260.43823	-543.20013	1105.5811	-259.93317
